<?xml version="1.0" encoding="utf-8"?>
<svg version="1.1" id="Слой_1" xmlns="http://www.w3.org/2000/svg" xmlns:xlink="http://www.w3.org/1999/xlink" x="0px" y="0px"
	 viewBox="0 0 523.452 69.976" style="enable-background:new 0 0 523.452 69.976;" xml:space="preserve">
<style type="text/css">
	.st0{fill:#FE7D2A; fill-opacity: 1;}
	.st1{fill:#504F4F;}
	.st2{fill:#FFFFFF; fill-opacity: 0;}
</style>

<rect class="st0" width="14.876" height="69.808"/>
<path class="st0" d="M16.876,30.884l24-29.825H58.5c0,0-15.588,16.595-22.5,23.254c-6.998,6.741-10.5,6.572-10.5,6.572
	c9.126-1.011,36.959,38.925,36.959,38.925l-16.741,0.132L16.876,30.884z"/>
<polygon class="st0" points="114.563,69.348 137.126,19.183 152.126,19.058 174.438,69.348 159.563,69.348 144.541,35.746 
	129.376,69.348 "/>
<path class="st0" d="M177.646,19.808c0,0,0.241,24.267,0.084,35.083c0.785,10.209,8.833,13.875,15.333,14.607
	c18.625,2.163,23.479-7.745,23.771-6.081c0,3.286,0,6.081,0,6.081h12.729l-0.083-49.627l-12.583,0.125
	c0,0-0.396,21.408-0.583,26.336c-0.75,5.613-2.333,11.226-12.417,12.642c-6.707-0.053-12.25-2.775-14.083-9.193
	c0-5.493-0.25-30.057-0.25-30.057L177.646,19.808z"/>
<polygon class="st0" points="236.819,19.023 236.819,69.808 251.376,69.808 251.438,50.871 276.813,50.747 276.813,69.808 
	291.792,69.808 291.598,19.023 276.876,19.023 276.938,38.768 251.438,38.768 251.376,19.023 "/>
<path class="st0" d="M94.24,17.132c12.408,1,16.386,6.302,16.719,8.989c0,7.625,0,43.688,0,43.688H98.55c0,0,0.171-5.75,0-5
	c-3.923,4-10.063,5-17.525,5s-19.274-6.333-19.274-16.75s13.747-14.122,15.857-14.643c5.458-1.708,12.83-0.857,19.104-4.896
	c5.163-5.462-1.524-13.903-27.087-5.962c0-3.313,0-7.438,0-7.438S81.831,16.132,94.24,17.132z M99.313,40.496
	c-5,1.375-5,1.375-11.882,3.438c-4.516,1.783-10.122,3.466-11.608,6.452c-2.135,5.861,0.843,10.723,8.51,10.673
	c6.667-1.625,10.484-3.133,14.902-5C99.313,54.253,99.313,42.621,99.313,40.496z"/>
<path class="st1" d="M367.251,3.933l0,65.415h14.125c0,0-0.056-23.94-0.012-26.19c0.044-2.25,2.262-13.85,13.52-13.85
	c10.992-0.75,11.504,8.247,11.602,11.623c0.097,3.375,0.016,28.417,0.016,28.417h13.833c0,0,0-24.771,0-34.873
	c0.208-5.042-7.333-15.667-17.896-15.979c-12.188-1.188-19.628,7.945-21.035,6.563c0.005-3.618-0.215-21.122-0.215-21.122
	L367.251,3.933z"/>
<rect x="484.917" y="4.808" class="st1" width="15.125" height="65.167"/>
<rect x="508.209" y="4.808" class="st1" width="15.243" height="65.167"/>
<path class="st2" d="M334.417,41.285c0-1.961-5.363,0.134-11.235,2.452c-4.516,1.783-10.337,3.899-11.823,6.885
	c-3.417,6.867,1.058,12.041,8.725,11.991c6.259-0.016,13.907-4.21,14.229-5.724C334.417,53.39,334.417,43.411,334.417,41.285z"/>
<path class="st2" d="M464.083,40.746c0-1.961-5.363,0.134-11.235,2.452c-4.516,1.783-10.337,3.899-11.823,6.885
	c-3.417,6.867,1.058,12.041,8.725,11.991c6.259-0.016,13.907-4.21,14.229-5.724C464.083,52.85,464.083,42.871,464.083,40.746z"/>
<path class="st0" d="M330.191,16.94c12.408,1,16.386,6.302,16.719,8.989c0,7.625,0,43.688,0,43.688h-12.409c0,0,0.171-5.75,0-5
	c-3.923,4-10.063,5-17.525,5s-19.274-6.333-19.274-16.75s13.747-14.122,15.858-14.643c5.458-1.708,12.83-0.857,19.104-4.896
	c5.163-5.462-1.524-13.903-27.087-5.962c0-3.313,0-7.438,0-7.438S317.783,15.94,330.191,16.94z M335.265,40.304
	c-5,1.375-5,1.375-11.882,3.438c-4.516,1.783-10.122,3.466-11.608,6.452c-2.135,5.861,0.843,10.723,8.51,10.673
	c6.667-1.625,10.484-3.133,14.902-5C335.265,54.061,335.265,42.429,335.265,40.304z"/>
<path class="st1" d="M461.49,16.94c12.408,1,16.386,6.302,16.719,8.989c0,7.625,0,43.688,0,43.688H465.8c0,0,0.171-5.75,0-5
	c-3.923,4-10.063,5-17.525,5c-7.462,0-19.274-6.333-19.274-16.75s13.747-14.122,15.857-14.643c5.458-1.708,12.83-0.857,19.104-4.896
	c5.163-5.462-1.524-13.903-27.087-5.962c0-3.313,0-7.438,0-7.438S449.081,15.94,461.49,16.94z M466.563,40.304
	c-5,1.375-5,1.375-11.882,3.438c-4.516,1.783-10.122,3.466-11.608,6.452c-2.135,5.861,0.843,10.723,8.51,10.673
	c6.667-1.625,10.484-3.133,14.902-5C466.563,54.061,466.563,42.429,466.563,40.304z"/>
</svg>
